<mxfile host="app.diagrams.net" modified="2022-09-29T03:18:49.748Z" agent="5.0 (Windows NT 10.0; Win64; x64) AppleWebKit/537.36 (KHTML, like Gecko) Chrome/105.0.0.0 Safari/537.36" etag="nAkptl4xYJv8yoT6iEwp" version="20.3.7" type="github">
  <diagram id="_501lHs8rrfr9zC4bPRZ" name="Page-1">
    <mxGraphModel dx="1221" dy="672" grid="1" gridSize="10" guides="1" tooltips="1" connect="1" arrows="1" fold="1" page="1" pageScale="1" pageWidth="1169" pageHeight="827" math="0" shadow="0">
      <root>
        <mxCell id="0" />
        <mxCell id="1" parent="0" />
        <mxCell id="ddSiMMEA9i3xqC-tkCgv-5" style="edgeStyle=orthogonalEdgeStyle;rounded=0;orthogonalLoop=1;jettySize=auto;html=1;entryX=0.5;entryY=0;entryDx=0;entryDy=0;entryPerimeter=0;shadow=1;fontSize=14;" edge="1" parent="1" source="ddSiMMEA9i3xqC-tkCgv-1" target="ddSiMMEA9i3xqC-tkCgv-2">
          <mxGeometry relative="1" as="geometry" />
        </mxCell>
        <mxCell id="ddSiMMEA9i3xqC-tkCgv-1" value="Data dari LPSE" style="rounded=1;whiteSpace=wrap;html=1;absoluteArcSize=1;arcSize=14;strokeWidth=2;shadow=1;fontSize=14;" vertex="1" parent="1">
          <mxGeometry x="320" y="140" width="170" height="80" as="geometry" />
        </mxCell>
        <mxCell id="ddSiMMEA9i3xqC-tkCgv-6" style="edgeStyle=orthogonalEdgeStyle;rounded=0;orthogonalLoop=1;jettySize=auto;html=1;entryX=0.5;entryY=0;entryDx=0;entryDy=0;shadow=1;fontSize=14;" edge="1" parent="1" source="ddSiMMEA9i3xqC-tkCgv-2" target="ddSiMMEA9i3xqC-tkCgv-3">
          <mxGeometry relative="1" as="geometry" />
        </mxCell>
        <mxCell id="ddSiMMEA9i3xqC-tkCgv-7" style="edgeStyle=orthogonalEdgeStyle;rounded=1;orthogonalLoop=1;jettySize=auto;html=1;entryX=0.5;entryY=0;entryDx=0;entryDy=0;shadow=1;fontSize=14;strokeColor=#FF0000;" edge="1" parent="1" source="ddSiMMEA9i3xqC-tkCgv-2" target="ddSiMMEA9i3xqC-tkCgv-4">
          <mxGeometry relative="1" as="geometry" />
        </mxCell>
        <mxCell id="ddSiMMEA9i3xqC-tkCgv-2" value="apakah ada &lt;br&gt;data NPWP?" style="strokeWidth=2;html=1;shape=mxgraph.flowchart.decision;whiteSpace=wrap;shadow=1;fontSize=12;" vertex="1" parent="1">
          <mxGeometry x="355" y="280" width="100" height="100" as="geometry" />
        </mxCell>
        <mxCell id="ddSiMMEA9i3xqC-tkCgv-3" value="Proses Transaksi" style="rounded=1;whiteSpace=wrap;html=1;absoluteArcSize=1;arcSize=14;strokeWidth=2;shadow=1;fontSize=14;" vertex="1" parent="1">
          <mxGeometry x="320" y="510" width="170" height="80" as="geometry" />
        </mxCell>
        <mxCell id="ddSiMMEA9i3xqC-tkCgv-8" style="edgeStyle=orthogonalEdgeStyle;rounded=1;orthogonalLoop=1;jettySize=auto;html=1;entryX=1;entryY=0.5;entryDx=0;entryDy=0;shadow=1;fontSize=14;" edge="1" parent="1" source="ddSiMMEA9i3xqC-tkCgv-4" target="ddSiMMEA9i3xqC-tkCgv-3">
          <mxGeometry relative="1" as="geometry">
            <Array as="points">
              <mxPoint x="645" y="550" />
            </Array>
          </mxGeometry>
        </mxCell>
        <mxCell id="ddSiMMEA9i3xqC-tkCgv-4" value="Isikan Data NPWP" style="rounded=1;whiteSpace=wrap;html=1;absoluteArcSize=1;arcSize=14;strokeWidth=2;shadow=1;fontSize=14;" vertex="1" parent="1">
          <mxGeometry x="560" y="400" width="170" height="80" as="geometry" />
        </mxCell>
        <mxCell id="ddSiMMEA9i3xqC-tkCgv-10" value="&lt;ul&gt;&lt;li&gt;&lt;span style=&quot;background-color: initial;&quot;&gt;Data NPWP di simpan pada table transaksi, tidak di simpan ke data user&lt;/span&gt;&lt;/li&gt;&lt;li&gt;&lt;span style=&quot;background-color: initial;&quot;&gt;form ini akan muncul jika user berhasil login namun data npwp kosong&lt;/span&gt;&lt;/li&gt;&lt;/ul&gt;" style="text;html=1;strokeColor=none;fillColor=none;align=left;verticalAlign=top;whiteSpace=wrap;rounded=0;shadow=1;fontSize=12;" vertex="1" parent="1">
          <mxGeometry x="730" y="400" width="230" height="160" as="geometry" />
        </mxCell>
      </root>
    </mxGraphModel>
  </diagram>
</mxfile>
